<svg xmlns="http://www.w3.org/2000/svg" style="display: none;"><symbol id="gentleman" viewBox="0 0 53.928 53.928"><title>gentleman</title><path d="M47.747,31.889c0-2.863-2.344-5.453-6.124-7.324c0.092,1.926,0.246,4.054,0.494,6.448l0.021,0.219l-0.094,0.197 c-0.098,0.205-2.545,5.017-15.217,5.017c-0.432,0-0.781-0.35-0.781-0.781c0-0.022,0.012-0.043,0.014-0.064 c0.034-0.396,0.353-0.709,0.756-0.715c0.004,0,0.008-0.002,0.012-0.002c0.571,0,1.111-0.014,1.638-0.032 c8.892-0.322,11.548-3.227,12.069-3.947c-0.267-2.633-0.428-4.967-0.511-7.048c-0.362-9.194,0.838-13.372,1.546-15.831 c0.627-2.173,0.723-2.507-0.781-4.013c-2.862-2.861-9.015-3.682-12.32-3.917c-0.55-0.04-1.019-0.062-1.382-0.076 C26.61,0.002,26.317,0.001,26.27,0v0.005c-3.627-0.031-10.78,0.331-13.904,3.455c-3.843,3.843,1.31,2.876,0.511,20.847 c-4.108,1.89-6.695,4.583-6.695,7.582c0,5.706,9.305,10.332,20.783,10.332C38.441,42.222,47.747,37.595,47.747,31.889z M13.465,7.652c0.183-0.391,0.647-0.561,1.04-0.375c0.028,0.013,0.691,0.316,1.831,0.707c2.071,0.71,5.727,1.708,10.084,1.807 c0.666,0.014,1.35,0.008,2.045-0.024c2.704-0.124,5.605-0.636,8.519-1.782c0.548-0.215,1.093-0.444,1.638-0.705 c0.389-0.19,0.855-0.022,1.042,0.368c0.186,0.39,0.021,0.855-0.368,1.042c-3.717,1.78-7.435,2.521-10.832,2.679 c-0.485,0.023-0.963,0.034-1.434,0.034c-0.199,0-0.391-0.008-0.585-0.013c-7.017-0.131-12.27-2.54-12.606-2.698 C13.45,8.507,13.282,8.043,13.465,7.652z"/><path d="M24.761,49.831l-13.197,3.87c-0.43,0.126-0.416,0.228,0.033,0.228h13.131c0.447,0,0.811-0.364,0.811-0.812v-2.702 C25.54,49.965,25.191,49.705,24.761,49.831z"/><path d="M28.49,50.415v2.702c0,0.447,0.364,0.812,0.812,0.812h13.131c0.447,0,0.462-0.102,0.032-0.228l-13.197-3.87 C28.839,49.705,28.49,49.965,28.49,50.415z"/></symbol></svg>